<?xml version="1.0" encoding="UTF-8"?>
<svg width="3e3" height="3e3" version="1.1" viewBox="0 0 793.75 793.75" xml:space="preserve" xmlns="http://www.w3.org/2000/svg"><path d="m575.51 538.49c11.153-19.181 7.8666-42.82-8.4138-57.975-7.6986-7.1662-19.715-12.455-30.287-9.3304 6.2653-26.016-8.9577-55.524-37.859-55.527 19.222-22.002 38.826-44.003 56.477-67.305 9.5982-12.671 20.018-25.841 24.838-41.225 8.2249-26.249-9.5061-53.55-38.408-49.385-18.71 2.6962-34.283 19.402-47.955 31.104-34.716 29.713-64.556 63.483-96.752 95.682 0.01-13.579 1.1638-26.763-0.1428-40.383-2.8715-29.93-18.624-57.043-41.923-75.883-15.863-12.827-40.959-24.198-58.88-8.0932-15.627 14.043-9.1284 35.272-4.9629 52.847 5.083 21.446 6.6332 43.67 6.6332 65.623 0 24.427-3.0586 48.779-9.6115 72.353-9.7811 35.188-24.609 68.428-28.105 105.16-1.9428 20.416 1.5614 41.664 6.4994 61.416 4.4705 17.882 10.987 36.819 9.1999 55.527-2.9182 30.541-19.492 58.971-31.34 86.656-3.0151 7.0449-13.461 24.4-8.1782 31.693 3.1281 4.3185 8.9126 3.6425 13.581 3.6425h134.61c14.998 0 33.291 2.8787 47.943-0.23436 5.2597-1.1175 7.7595-7.3944 10.279-11.544 5.3875-8.8738 10.69-18.412 19.18-24.727 14.742-10.965 33.132-16.288 47.955-27.793 35.717-27.722 61.388-67.308 81.4-107.33 12.215-24.429 25.166-52.936 1.8781-75.685-4.8623-4.7497-10.776-8.6839-17.655-9.2883m-317.18 238.09c2.012-8.4705 6.6773-16.422 10.095-24.398 10.607-24.754 24.136-50.928 26.006-78.243 2.9272-42.745-20.537-81.964-14.831-125.36 3.987-30.321 17.155-58.309 25.484-87.497 6.326-22.169 8.9647-44.437 10.531-67.305 1.6288-23.785 0.27272-47.145-3.6483-70.671-2.1026-12.615-8.5914-27.598-7.2168-40.383 1.1878-11.049 11.81-13.084 20.886-10.286 42.069 12.97 55.429 63.737 53.877 101.99-0.3696 9.1067 0.8203 20.773-2.3273 29.443-1.9731 5.4349-8.0343 10.32-12.008 14.306-7.2507 7.274-14.053 15.055-20.893 22.716-9.1485 10.246-19.243 20.95-26.279 32.811-3.2741 5.5196-2.155 12.993 5.1064 14.625 5.8246 1.309 9.9957-5.6837 12.935-9.5771 9.0907-12.043 19.159-23.315 29.274-34.494 41.31-45.655 84.58-90.627 130.26-131.94 12.819-11.594 26.731-27.124 42.907-33.899 7.5711-3.1713 17.695-3.5722 22.527 4.3235 11.771 19.237-12.212 44.304-23.2 58.038-37.095 46.367-77.664 89.644-116.38 134.61-11.566 13.434-23.256 26.754-34.592 40.383-4.1127 4.9444-11.027 11.843-6.0904 18.472 9.8602 13.239 27.053-15.802 32.863-22.679 19.711-23.329 39.452-47.261 61.075-68.845 9.3212-9.3047 23.66-14.562 35.189-5.5868 11.727 9.1287 12.572 26.688 6.0736 39.097-13.916 26.57-38.65 50.579-58.122 73.195-6.0784 7.0598-29.468 26.123-20.109 36.064 9.9539 10.573 23.956-13.541 29.485-20.079 17.444-20.628 34.537-41.532 51.863-62.258 7.483-8.9512 16.883-18.446 29.514-13.013 14.592 6.2765 18.747 24.675 12.516 38.253-12.656 27.579-36.247 53.389-56.407 75.719-5.6544 6.2629-26.166 21.593-19.924 31.05 8.5025 12.88 21.05-6.4234 26.827-12.541 13.801-14.614 27.048-30.188 39.112-46.273 4.2279-5.6373 9.948-17.993 16.461-20.931 9.0586-4.0858 18.944 11.576 20.512 18.407 4.0706 17.738-11.825 40.827-20.233 55.527-18.523 32.381-39.346 64.306-69.342 87.299-13.664 10.474-29.383 15.767-43.749 24.789-8.6298 5.4197-15.311 13.34-21.009 21.681-2.4105 3.5289-5.0141 11.086-9.4343 12.352-12.004 3.4377-29.394 0.26743-41.91 0.26743h-80.767c-13.947 0-29.177-1.7078-42.907 0.84132z" fill="#001c19"/><path d="m433.32 92.419c-11.973-16.765-24-31.161-43.749-39.161-40.786-16.522-87.787 5.031-103.43 45.891-10.114 26.422-6.7578 55.951 6.0522 80.767 11.091 21.486 29.707 37.588 47.738 53.113 18.632 16.042 37.072 32.309 55.527 48.556 8.4172 7.4101 16.777 14.882 25.24 22.242 3.873 3.3682 7.9105 8.0954 13.461 8.1023 6.7301 8e-3 12.206-6.8769 16.826-11.003 11.802-10.539 23.576-21.105 35.335-31.688 44.955-40.46 111.73-85.997 97.59-155.79-12.415-61.255-88.266-87.86-133.77-42.904-6.5924 6.5136-13.104 13.245-16.826 21.871" fill="#d40000" stroke="#000" stroke-width="17.563"/></svg>
