<?xml version="1.0" encoding="UTF-8"?>
<svg width="744.15" height="241.43" enable-background="new 0 0 1024 1024" version="1.1" viewBox="0 0 744.15 241.43" xml:space="preserve" xmlns="http://www.w3.org/2000/svg">





<g transform="matrix(.93644 0 0 .93644 23.648 7.6723)"><path d="m609.29 0.14595c21.693-0.79578 42.474 1.5423 62.065 9.9924 38.321 16.529 62.628 45.002 70.191 86.362 5.1682 28.265 3.0948 56.083-10.221 82.208-12.738 24.992-32.201 42.226-58.867 51.674-23.086 8.1794-46.705 11.133-71.038 10.518-15.81-0.3996-31.64 0.0274-47.461 0.0171-10.587-7e-3 -12.993-2.4445-12.993-12.887-2e-3 -71.798-3e-3 -143.6-4e-3 -215.4 0-1.3326-0.0394-2.6681 0.0313-3.9974 0.30401-5.7176 3.0879-8.4601 8.8273-8.4717 19.656-0.0401 39.313-0.0178 59.47-0.0196m19.197 43.674c-6.899-1.0704-13.768-2.5051-20.817-1.8872-8.4202 0.73822-11.344 3.776-11.423 11.926-0.1856 19.286-0.70111 38.577-0.41528 57.857 0.37238 25.124 0.44782 50.241 0.20825 75.364-0.0833 8.7341 3.3256 12.189 12.045 12.108 14.135-0.13166 27.616-3.755 40.862-8.2788 50.571-17.271 58.243-74.324 36.444-109.5-12.94-20.878-32.453-32.354-56.904-37.594z"/><path d="m528.22 235.92c-2.3177 5.2804-6.8471 5.7792-11.126 5.4142-9.9868-0.85181-19.964-0.24347-29.939-0.3523-6.0915-0.0665-10.203-2.2916-13.548-7.5153-18.589-29.028-37.426-57.898-56.227-86.789-1.2375-1.9017-2.2-4.1419-4.5321-5.2457-2.9263 1.0908-3.7341 4.1362-5.6943 6.0819-10.602 10.524-16.319 22.369-14.628 38.185 1.5493 14.494 0.31714 29.275 0.49701 43.928 0.11829 9.6405-2.3967 11.994-12.155 11.334-8.7732-0.59375-17.535 1.1487-26.369 0.0176-7.0775-0.90625-8.5455-2.0384-8.5472-9.3058-0.0138-60.978-0.0144-121.96-0.0183-182.93-8.5e-4 -13.329-0.0309-26.657 0.0148-39.985 0.0228-6.6376 1.9969-8.5603 8.6839-8.5901 9.8271-0.0438 19.656-0.1424 29.481-9e-3 7.0513 0.096 8.606 1.8042 8.6101 9.0839 0.015 26.146-0.0639 52.291-4e-3 78.437 5e-3 2.3448-1.3738 5.7345 1.3754 6.8189 2.9798 1.1755 3.9348-2.4676 5.3201-4.2798 21.437-28.041 42.823-56.121 64.078-84.3 3.0841-4.0888 6.4855-6.0314 11.766-5.8698 11.652 0.35663 23.322 0.13894 34.984 0.10934 3.1119-8e-3 5.6562 1.0458 6.9186 3.9518 1.1946 2.7494-0.0243 5.1013-1.7717 7.3388-20.389 26.109-40.93 52.103-61.028 78.434-12.118 15.877-11.415 9.3548-0.66992 26.372 20.447 32.383 41.613 64.313 62.487 96.426 3.5393 5.4449 7.0687 10.897 10.699 16.281 1.384 2.0523 2.0776 4.1428 1.3418 6.9637z"/><path d="m190.96 240.14c-3.3113-2.2117-3.9669-5.1522-3.947-8.5018 0.0693-11.662-0.50833-23.358 0.21478-34.976 0.70456-11.32-3.4818-20.011-11.308-27.588-9.0947-8.8046-18.093-17.704-27.677-25.99-13.427-11.608-23.842-25.16-26.667-43.262-1.3147-8.424-0.88638-16.993-0.47955-25.443 0.80746-16.77-4.1346-31.441-14.17-44.694-3.3995-4.4895-6.723-9.095-7.2578-15.09-0.74088-8.3059 4.3689-14.35 12.628-14.439 7.8292-0.0842 15.664 0.13431 23.489-0.0619 6.3887-0.16019 11.811 1.8922 16.243 6.3564 13.847 13.947 27.624 27.962 41.403 41.976 6.072 6.176 12.156 12.343 18.083 18.657 2.4813 2.6436 4.3467 2.1705 6.6244-0.18646 16.436-17.008 32.92-33.97 49.415-50.921 3.0181-3.1016 6.1039-6.1416 9.2499-9.1132 4.9279-4.6547 10.619-7.1461 17.617-6.7852 6.4801 0.33417 12.991 0.0382 19.489 0.0683 11.442 0.0529 17.294 7.9592 14.165 19.033-1.3486 4.7725-4.2736 8.6459-7.1512 12.506-8.3633 11.22-12.069 23.843-12.387 37.757-0.26987 11.779 0.99252 23.626-1.7249 35.328-2.5204 10.853-7.8811 20.114-15.23 28.243-11.749 12.995-25.345 24.081-37.978 36.167-8.1686 7.8153-12.192 17.004-11.448 28.569 0.66207 10.29 0.298 20.649 0.29025 30.977-8e-3 10.05-1.4522 11.322-11.482 12.269-10.928 1.031-21.859-0.23706-32.783 0.40247-2.263 0.13251-4.5808-0.67157-7.2207-1.2576m42.347-95.152c1.4748-1.346 2.9276-2.7169 4.4279-4.0338 9.632-8.4542 19.826-16.327 28.208-26.1 11.023-12.852 13.212-30.708 5.588-43.168-5.9885-9.7867-14.569-10.611-22.55-2.3528-9.0276 9.3413-18.174 18.568-27.333 27.782-5.3892 5.4214-8.2369 5.3767-13.828-0.13052-9.2547-9.1157-18.305-18.445-27.722-27.388-10.014-9.5093-18.448-7.4091-23.582 5.5336-5.7583 14.517-2.8115 27.558 7.3855 38.887 14.848 16.496 32.776 29.76 48.422 45.435 2.1046 2.1085 3.9557 1.8077 6.0015-0.19012 4.765-4.6531 9.6403-9.1932 14.982-14.275z"/><path d="m122.29 196.15c6.6642 1.2e-4 12.829-0.0591 18.992 0.0195 4.9118 0.0628 7.1859 2.0745 7.2598 6.8624 0.15411 9.9936 0.16858 19.993 0.0146 29.986-0.0726 4.7131-2.1715 7.7579-7.5052 8.0585-10.62 0.59833-21.229 0.10261-31.842 0.0776-22.307-0.0525-44.613-0.19513-66.92-0.27716-11.606-0.0427-23.212 0.0518-34.817-0.0906-5.0633-0.0623-7.3903-3.048-7.4193-9.148-0.0625-13.161-0.0508-26.322-0.051-39.483-9.9e-4 -59.808 1e-3 -119.62 0.0204-179.42 7.5e-4 -2.3258-0.0568-4.6958 0.34958-6.9671 0.62579-3.4976 2.71-5.6027 6.5342-5.595 11.162 0.0223 22.325-0.0895 33.485 0.0419 4.9359 0.0581 7.1661 2.8367 7.2033 8.7849 0.0832 13.327 0.0259 26.656 0.0271 39.984 4e-3 45.982 6e-3 91.963 0.0172 137.94 2e-3 7.1481 1.9352 9.1832 9.1773 9.2031 21.658 0.0597 43.316 0.0215 65.474 0.0214z"/><path d="m669.23 147.14c-3.7365 8.938-9.2709 16.175-15.8 22.678-4.8566 4.8372-8.9269 5.2408-13.03 1.5723-4.2402-3.7907-4.4616-9.317-0.21313-14.085 6.3802-7.1605 11.963-14.719 13.904-24.377 3.3122-16.482-0.28082-31.012-12.341-43.075-2.3061-2.3065-4.1188-4.5754-3.9172-8.1853 0.23279-4.1679 2.4383-6.8696 5.7383-8.7366 3.0922-1.7493 5.9655-0.10931 8.2338 1.8329 12.22 10.463 20.158 23.508 21.674 39.674 1.0284 10.961 0.27759 21.947-4.2489 32.701z"/><path d="m626.04 101.46c3.8599-3.1262 6.8217-1.5687 9.4702 1.1639 8.5502 8.8222 9.5946 27.496 2.1166 37.162-0.60589 0.78326-1.2759 1.568-2.0658 2.1482-2.4086 1.7691-4.7667 3.8301-8.1163 2.0185-3.6018-1.9479-4.2048-5.3427-3.264-8.622 2.4142-8.4159 2.462-16.646-4e-3 -25.051-0.83826-2.8566-0.53924-5.9866 1.8638-8.8199z"/></g>
</svg>
