<?xml version="1.0" encoding="UTF-8"?>
<svg width="246.36mm" height="164.69mm" version="1.1" viewBox="0 0 246.36 164.69"
     xml:space="preserve" xmlns="http://www.w3.org/2000/svg">
        <style>
    svg {
      --color: #dd0000}
    }
    @media (prefers-color-scheme: dark) {
      svg {
        --color: white
      }
    }

    .fill { fill: var(--color); }
    .stroke {
      fill: none;
      stroke: var(--color);
    }
    </style>

    <g fill="#323231"><g stroke-width=".99998">
        <path class="fill" d="m10.345 42.036c-3.0421 0.87716-2.2265 5.1367-2.2265 7.5266v73.961c0 1.4434-0.34029 3.4076 0.49701 4.6739 1.3788 2.0854 5.515 1.2628 7.6659 1.2628h17.068c2.1701 0 5.3936 0.59464 7.417-0.24966 3.0393-1.2681 1.7354-8.4369 1.7354-11.129 0-1.2865 0.17455-2.6552-0.79858-3.6576-1.1346-1.1686-2.6543-1.0423-4.1487-1.0423h-8.6576c-1.3059 0-3.9342 0.52229-4.5506-1.0039-0.52043-1.2886-0.14926-3.3109-0.14926-4.6854v-59.367c0-1.5558 0.32533-3.5463-0.55122-4.924-0.59452-0.93436-1.5888-1.3921-2.6645-1.4842-3.0301-0.25957-7.7143-0.72423-10.636 0.11833m0.49453 2.8267h7.4208c0.81776 0 2.1797-0.24274 2.8191 0.39662 0.86795 0.86796 0.39662 3.4152 0.39662 4.5506v59.861c0 1.4486-0.32396 3.3682 0.36035 4.696 0.84575 1.6411 2.4613 1.7347 4.0922 1.7354h9.1524c1.3759 0 4.3605-0.62017 4.6632 1.2416 0.34445 2.1187 0.03678 4.5274 0.03664 6.674-4.5e-5 0.75829 0.20454 1.9489-0.39662 2.5374-0.90943 0.89027-3.3793 0.43097-4.5506 0.43097h-21.026c-0.90221-3.4e-4 -2.3629 0.21327-2.8191-0.79858-0.77969-1.7293-0.14926-4.9814-0.14926-6.8696v-74.456"/>
        <path class="fill" d="m96.426 93.838c3.3039 3.2036 2.9686 8.1696 2.9683 12.368-4.4e-4 6.5917-0.97072 13.826-3.9502 19.789-2.6364 5.2761-6.9568 9.5305-9.0549 15.089-1.5893 4.2106-2.238 8.9173-2.8584 13.358-0.16513 1.1818-1.0192 3.6267 0.11087 4.5124 1.9294 1.5121 2.3225-1.9717 2.4648-3.0283 0.67122-4.9827 1.4963-10.169 3.4162-14.842 2.0671-5.0317 6.2024-8.9607 8.5708-13.853 2.9694-6.1328 3.587-12.622 4.0439-19.295 0.27792-4.0583 0.48479-8.2191-0.93622-12.121-0.79792-2.1909-2.4906-3.335-3.5659-5.2366-0.72814-1.2876-0.08096-3.4608-0.2943-4.9052-0.5706-3.8632-3.9123-6.0256-7.5938-6.1841-0.12886-6.2433-4.1285-8.6576-9.8942-8.6576 3.2264-5.34 6.7813-10.478 9.9933-15.831 1.797-2.9951 3.9631-6.4111 4.5802-9.8942 1.259-7.1074-6.178-11.188-11.853-6.7952-5.1678 4.0009-7.1432 11.129-11.873 15.453-0.11224-5.4381-3.032-13.544-7.421-16.937-3.015-2.3304-9.2935-2.6024-10.861 1.6006-1.4458 3.8782 0.37574 9.3603 0.8965 13.358 1.0431 8.0069 1.8618 17.325-0.2653 25.231-0.57255 2.1281-2.4523 3.9235-3.692 5.6893-3.3082 4.7123-7.4667 10.234-6.8141 16.325 0.41292 3.8546 2.9059 7.2544 4.5958 10.636 2.6248 5.253 4.912 11.359 4.8327 17.315-0.09812 7.3689-2.9223 14.983-5.6125 21.768-0.53227 1.3425-3.1697 6.0647-1.5542 7.129 2.3818 1.5692 3.5966-4.2567 4.1141-5.6448 2.5261-6.7758 5.8609-14.428 5.9482-21.768 0.08087-6.8012-1.7053-12.9-4.5279-19.047-1.7018-3.7063-4.865-7.6448-4.8636-11.873 0.0019-5.7284 5.0736-11.522 8.3107-15.831 7.3961-9.8465 14.84-19.664 22.003-29.683 2.6269-3.6742 6.7931-12.345 11.977-12.36 2.3141-0.0075 4.0698 1.8727 3.8018 4.1977-0.38953 3.3804-2.6072 6.5211-4.2595 9.3996-6.3238 11.017-13.839 21.322-19.639 32.652-1.2867 2.5136-2.724 4.9819-4.1475 7.4208-0.50147 0.85918-1.5445 2.1124-0.77052 3.1084 2.0485 2.6362 4.7656-4.1059 5.41-5.3347 2.1105-4.0239 4.4526-7.9283 6.7047-11.873 0.88569-1.5515 1.7691-4.009 3.276-5.0453 1.2813-0.88119 4.3422-0.56705 5.666 0.09809 2.6551 1.334 3.2288 4.2681 2.5967 6.9261-1.2937 5.4403-4.2417 11.029-6.6087 16.079-0.6289 1.3415-3.5327 5.67-2.2346 6.9899 2.0117 2.0458 3.7344-3.1134 4.2307-4.2689 1.9492-4.5381 3.9298-9.0622 5.8682-13.605 0.74918-1.7558 1.1114-4.3883 3.5688-3.6671 3.4176 1.003 3.559 4.9706 3.0169 7.8722-0.84795 4.5379-1.6309 9.1367-2.8076 13.605-0.44716 1.6978-1.9158 4.6848-1.4382 6.4169 0.43551 1.5792 2.1991 0.86435 2.6801-0.23763 1.1875-2.7204 1.5478-6.02 2.2307-8.9002 0.59606-2.5143 1.4014-5.0736 1.5128-7.6682m-40.072-20.284c1.9889-7.6876 0.58398-16.971-0.42507-24.736-0.31506-2.4244-2.1264-8.0107-0.15555-9.9802 1.5759-1.575 4.6706-0.39126 6.019 0.85393 3.2822 3.0312 4.9682 8.064 5.8292 12.342 0.31367 1.5585 0.95763 3.6071 0.60868 5.1945-0.36576 1.6642-2.2442 3.3584-3.2498 4.6999-2.7049 3.608-5.2097 8.7264-8.6263 11.626"/></g>
        <path class="fill" d="m73.174 12.706c-2.4147-6.1261-13.524-11.527-16.614-2.721-2.8834 8.2191 5.2234 16.705 10.04 22.262 1.3799 1.5922 4.047 5.981 6.3264 6.0807 1.5784 0.06909 2.9371-1.811 3.8528-2.865 2.6461-3.046 5.4721-5.9163 7.903-9.1524 3.1243-4.1592 6.4308-9.3725 5.4446-14.842-1.013-5.6182-7.3456-7.6252-12.006-4.86-2.4132 1.4319-3.5947 3.7795-4.9473 6.0968m-0.49473 22.262c-4.2914-6.0979-11.063-11.029-13.072-18.552-1.2225-4.579 0.8641-9.623 6.393-7.3888 3.3486 1.3533 5.1772 5.5006 5.6178 8.873 0.15836 1.2121-0.11968 4.2953 1.8004 4.2953 2.0467 0 1.385-3.5643 1.6016-4.7899 0.75465-4.2708 5.1104-11.931 10.476-8.1273 2.1408 1.5177 1.9889 4.6456 1.4116 6.8905-1.3912 5.4103-5.8643 10.339-9.5501 14.347-1.3058 1.4199-2.7875 3.8762-4.6787 4.4525"/>
        <path class="fill" d="m130.56 94.586h0.49472c0.95847 3.0277 3.2669 5.9393 4.8978 8.6576 3.2113 5.3524 6.4024 10.717 9.5987 16.079 1.673 2.8064 3.474 7.5008 6.2917 9.2812 1.8616 1.1763 4.0848 0.91207 6.1743 0.86424 2.9652-0.0679 5.939-3e-3 8.905-4e-3 1.7932-7e-4 3.9248-0.15822 3.9362-2.4736 7e-3 -1.4268-0.97221-2.5658-1.6968-3.7105-1.4488-2.2887-2.8498-4.6161-4.2651-6.9261-5.411-8.832-10.751-17.716-16.293-26.467-1.4575-2.3025-2.851-4.6559-4.3571-6.9261-0.59003-0.88942-1.75-2.0999-1.7943-3.2157-0.0366-0.92454 0.85726-1.7773 1.3597-2.4736 1.3048-1.8082 2.5934-3.626 3.8874-5.4419 4.7083-6.6074 9.4388-13.199 14.171-19.789 1.3687-1.9058 4.8885-5.2011 4.7661-7.6682-0.0792-1.5963-1.487-2.3906-2.9306-2.4637-3.3628-0.17038-6.7744-0.0099-10.142-0.0099-1.6136 0-3.4722-0.22246-4.9251 0.63272-3.1436 1.8503-5.5918 7.2645-7.6087 10.251-3.407 5.0453-6.8135 10.119-10.329 15.089-2.1172 2.9939-4.7588 6.0861-6.3264 9.3996-0.74889-2.5335-0.24736-5.7729-0.24736-8.4103v-17.315c0-2.2814 0.49083-5.2204-0.14162-7.4208-0.31507-1.0963-1.22-1.913-2.332-2.1411-3.0586-0.62746-8.594-0.70811-11.623 0.04675-1.1495 0.28654-1.9145 1.1928-2.145 2.3418-1.1928 5.9467-0.0849 13.221-0.0849 19.295v56.893c0 2.1046-0.56964 5.2061 0.24965 7.1696 0.43485 1.0421 1.3782 1.6002 2.4713 1.7094 2.7503 0.27475 5.6461 0.026 8.4103 0.026 1.281 0 2.8118 0.22366 3.9469-0.49702 1.9625-1.246 1.2477-4.68 1.2477-6.6765 0-5.7685-1.0351-12.677 0.25193-18.305 0.84221-3.6822 4.5423-6.113 6.1795-9.3996m32.899-49.719c-1.3352 3.1586-4.179 6.1412-6.2127 8.905-3.9121 5.3166-7.7182 10.713-11.563 16.079-1.7526 2.4459-5.9637 6.3771-6.3428 9.3996-0.18084 1.4416 1.2833 3.0739 2.018 4.2051 1.9025 2.9293 3.6857 5.9438 5.5393 8.905 4.8283 7.7133 9.652 15.448 14.335 23.252 2.2299 3.716 5.0023 7.3733 6.6788 11.379h-9.3996c-1.48 0-3.3028 0.25975-4.6775-0.40882-1.932-0.93959-3.1846-4.2428-4.2302-6.0226-2.9654-5.048-5.9876-10.069-9.0012-15.089-2.0905-3.4823-4.3084-6.8876-6.3669-10.389-0.65657-1.1168-1.5376-3.3976-2.9378-3.7213-2.1768-0.50321-5.0691 4.7725-6.242 6.1949-5.1056 6.1912-3.6486 13.915-3.6486 21.521 0 1.9785 0.64558 5.3164-0.14926 7.1368-0.39512 0.905-1.5056 0.77704-2.3244 0.77873-1.8614 4e-3 -6.2583 0.81259-7.8083-0.25423-1.0092-0.6946-0.602-2.9-0.602-3.9509v-73.466c0-1.1227-0.49931-3.7452 0.77874-4.3032 1.878-0.81999 5.342-0.14939 7.3842-0.14926 0.6909 4.7e-5 1.9372-0.22468 2.4294 0.39662 1.0323 1.3034 0.29164 5.4007 0.29164 7.0243v19.541c0 2.7538-0.27951 5.6741 0.0269 8.4103 0.0973 0.86886 0.72704 2.1432 1.8096 1.9201 1.3862-0.2857 2.3887-2.3736 3.168-3.4043 2.4876-3.2898 4.7392-6.7526 7.0874-10.142 3.8835-5.6053 7.859-11.155 11.655-16.821 1.2665-1.8903 3.0724-5.8237 5.237-6.7425 1.165-0.49447 2.9189-0.18363 4.163-0.18363h8.905"/>
        <path class="fill" d="m184.68 64.574c-1.8705 0.39648-3.6677 2.3101-5.0988 3.4988-3.224 2.678-6.4464 5.6875-9.9297 8.0187-3.3855 2.2659-8.5406-0.75148-12.072 1.0708-1.7344 0.8949-1.8799 2.7054-1.8826 4.4395v10.466c0 1.542-0.26308 3.5138 0.91751 4.7247 2.8232 2.8958 9.1035-0.43251 12.501 1.1828 4.0626 1.9317 7.9705 6.3396 11.54 9.1244 1.3311 1.0387 3.19 3.0375 5.087 2.5904 2.4386-0.57473 1.3536-7.8745 1.3536-9.8399v-27.372c0-2.0456 1.1371-8.6566-2.4152-7.9035m-0.26836 3.3415v38.644l-9.6614-7.5878-3.5951-3.6834-0.16199-9.6614 0.2758-6.9318 4.5547-3.9772 8.5875-6.8028m-16.102 11.808v15.296h-6.709l-2.5216-0.27581-0.4303-2.9445v-8.5875l0.4303-3.2128 2.5216-0.27582z"/>
    </g>
    <path class="stroke" d="m181.87 120.97c0 2.5588 0.51513 4.5693 1.5454 6.0314 1.0606 1.4215 2.4998 2.1323 4.318 2.1323h18.09c6.5451 0 12.136-1.7465 16.772-5.2394 4.6664-3.493 8.2268-8.5293 10.681-15.109 2.4847-6.6204 3.7271-14.561 3.7271-23.821 0-9.2604-1.2423-17.16-3.7271-23.699-2.4544-6.5391-6.0148-11.514-10.681-14.927-4.6361-3.4118-10.227-5.1176-16.772-5.1176h-18.09c-1.8181 0-3.2574 0.73109-4.318 2.1933-1.0303 1.4215-1.5454 3.4118-1.5454 5.9705m11.727 5.0566h10.999c6.5451 0 11.59 2.64 15.135 7.9201 3.5453 5.2394 5.3178 12.794 5.3178 22.664 0 9.9913-1.7574 17.647-5.2724 22.968-3.515 5.2801-8.5752 7.92-15.181 7.92h-10.999"
          fill="none" stroke="#323231" stroke-width="2.865" aria-label="D"/></svg>
