<?xml version="1.0" encoding="UTF-8"?>
<svg width="246.36mm" height="164.69mm" version="1.1" viewBox="0 0 246.36 164.69" xml:space="preserve" xmlns="http://www.w3.org/2000/svg"><g transform="matrix(.93491 0 0 .93491 -28.628 -15.724)" fill="#323231" stroke-width="1.0696"><path d="m228.16 85.889c-2.0007 0.42408-3.923 2.4709-5.4538 3.7424-3.4485 2.8645-6.8952 6.0835-10.621 8.577-3.6212 2.4237-9.1352-0.8038-12.913 1.1453-1.8551 0.9572-2.0108 2.8938-2.0137 4.7486v11.195c0 1.6494-0.2814 3.7584 0.98139 5.0536 3.0198 3.0974 9.7373-0.46262 13.371 1.2651 4.3454 2.0662 8.5254 6.781 12.343 9.7597 1.4238 1.111 3.4121 3.249 5.4412 2.7708 2.6084-0.61475 1.4478-8.4227 1.4478-10.525v-29.278c0-2.188 1.2163-9.2593-2.5834-8.4538m-0.28704 3.5741v41.334l-10.334-8.1161-3.8454-3.9398-0.17327-10.334 0.295-7.4144 4.8718-4.2541 9.1854-7.2764m-17.223 12.63v16.361h-7.1761l-2.6972-0.29501-0.46026-3.1495v-9.1854l0.46026-3.4365 2.6972-0.29502z"/><path d="m170.27 117.99h0.52917c1.0252 3.2385 3.4943 6.3528 5.2388 9.2604 3.4349 5.725 6.8482 11.463 10.267 17.198 1.7895 3.0018 3.7159 8.023 6.7297 9.9274 1.9912 1.2582 4.3692 0.97557 6.6042 0.92441 3.1716-0.0726 6.3525-3e-3 9.525-4e-3 1.918-7.5e-4 4.1981-0.16924 4.2102-2.6458 7e-3 -1.5262-1.0399-2.7444-1.8149-3.9688-1.5497-2.448-3.0482-4.9375-4.562-7.4083-5.7877-9.4469-11.5-18.949-17.427-28.31-1.559-2.4628-3.0495-4.98-4.6604-7.4083-0.63111-0.95134-1.8719-2.2461-1.9192-3.4396-0.0392-0.98891 0.91694-1.901 1.4544-2.6458 1.3956-1.9341 2.774-3.8785 4.158-5.8208 5.0361-7.0674 10.096-14.118 15.158-21.167 1.464-2.0385 5.2288-5.5632 5.0979-8.2021-0.0847-1.7074-1.5905-2.557-3.1346-2.6352-3.5969-0.18224-7.2461-0.0106-10.848-0.0106-1.7259 0-3.7139-0.23795-5.268 0.67677-3.3625 1.9791-5.9811 7.7703-8.1384 10.965-3.6442 5.3966-7.2879 10.823-11.048 16.14-2.2646 3.2023-5.0901 6.5098-6.7669 10.054-0.80103-2.7099-0.26458-6.1748-0.26458-8.9958v-18.521c0-2.4402 0.525-5.5839-0.15148-7.9375-0.33701-1.1726-1.3049-2.0462-2.4944-2.2902-3.2716-0.67115-9.1923-0.75741-12.432 0.05-1.2295 0.30649-2.0478 1.2758-2.2943 2.5048-1.2758 6.3607-0.0908 14.142-0.0908 20.638v60.854c0 2.2511-0.6093 5.5686 0.26703 7.6688 0.46512 1.1147 1.4742 1.7116 2.6434 1.8284 2.9418 0.29388 6.0392 0.0278 8.9958 0.0278 1.3702 0 3.0076 0.23923 4.2217-0.53162 2.0991-1.3327 1.3346-5.0058 1.3346-7.1413 0-6.1701-1.1072-13.56 0.26947-19.579 0.90085-3.9386 4.8585-6.5386 6.6097-10.054m35.19-53.181c-1.4282 3.3785-4.4699 6.5688-6.6452 9.525-4.1845 5.6867-8.2556 11.459-12.368 17.198-1.8746 2.6162-6.3789 6.8211-6.7844 10.054-0.19343 1.542 1.3726 3.2879 2.1585 4.4979 2.035 3.1332 3.9423 6.3576 5.925 9.525 5.1645 8.2503 10.324 16.524 15.333 24.871 2.3851 3.9747 5.3506 7.8866 7.1438 12.171h-10.054c-1.583 0-3.5327 0.27783-5.0032-0.43729-2.0665-1.005-3.4063-4.5382-4.5247-6.4419-3.1719-5.3994-6.4045-10.77-9.6279-16.14-2.236-3.7247-4.6083-7.3671-6.8102-11.112-0.70229-1.1946-1.6447-3.6342-3.1423-3.9804-2.3283-0.53824-5.422 5.1048-6.6766 6.6262-5.4611 6.6222-3.9026 14.884-3.9026 23.019 0 2.1162 0.69053 5.6865-0.15965 7.6337-0.42263 0.968-1.6104 0.83113-2.4862 0.83294-1.991 4e-3 -6.694 0.86917-8.3519-0.27193-1.0795-0.74296-0.64391-3.1019-0.64391-4.226v-78.581c0-1.2009-0.53407-4.006 0.83295-4.6028 2.0088-0.87708 5.7139-0.15979 7.8983-0.15965 0.73901 5e-5 2.0721-0.24032 2.5985 0.42423 1.1042 1.3941 0.31195 5.7767 0.31195 7.5133v20.902c0 2.9455-0.29897 6.0691 0.0288 8.9958 0.10408 0.92935 0.77766 2.2924 1.9356 2.0538 1.4827-0.30559 2.555-2.5389 3.3886-3.6413 2.6608-3.5188 5.0692-7.2227 7.5808-10.848 4.1539-5.9955 8.4062-11.932 12.466-17.992 1.3547-2.0219 3.2863-6.2292 5.6016-7.2119 1.2461-0.5289 3.1221-0.19641 4.4528-0.19641h9.525"/><path d="m41.686 61.781c-3.2539 0.93823-2.3815 5.4943-2.3815 8.0506v79.11c0 1.5439-0.36398 3.6448 0.53161 4.9993 1.4748 2.2306 5.899 1.3507 8.1996 1.3507h18.256c2.3212 0 5.7691 0.63604 7.9334-0.26704 3.2509-1.3564 1.8562-9.0243 1.8562-11.904 0-1.3761 0.1867-2.8401-0.85418-3.9122-1.2136-1.25-2.8391-1.1149-4.4375-1.1149h-9.2604c-1.3968 0-4.2081 0.55866-4.8674-1.0738-0.55666-1.3783-0.15965-3.5414-0.15965-5.0116v-63.5c0-1.6641 0.34798-3.7932-0.5896-5.2668-0.63591-0.99941-1.6994-1.489-2.85-1.5875-3.2411-0.27764-8.2514-0.77465-11.377 0.12657m0.52896 3.0235h7.9375c0.8747 0 2.3315-0.25964 3.0154 0.42423 0.92838 0.92839 0.42423 3.653 0.42423 4.8674v64.029c0 1.5495-0.34651 3.6027 0.38544 5.023 0.90463 1.7554 2.6327 1.8555 4.3771 1.8562h9.7896c1.4717 0 4.6641-0.66335 4.9879 1.328 0.36843 2.2662 0.03934 4.8426 0.03919 7.1386-4.8e-5 0.81108 0.21878 2.0846-0.42423 2.714-0.97275 0.95226-3.6146 0.46098-4.8674 0.46098h-22.49c-0.96502-3.7e-4 -2.5274 0.22812-3.0154-0.85418-0.83397-1.8497-0.15965-5.3282-0.15965-7.3479v-79.64"/><path d="m133.76 117.19c3.5339 3.4266 3.1753 8.7384 3.175 13.229-4.7e-4 7.0506-1.0383 14.789-4.2252 21.167-2.8199 5.6434-7.4411 10.194-9.6853 16.14-1.6999 4.5037-2.3938 9.5381-3.0574 14.288-0.17663 1.2641-1.0902 3.8792 0.11859 4.8266 2.0637 1.6174 2.4842-2.109 2.6364-3.2391 0.71795-5.3296 1.6005-10.877 3.654-15.875 2.211-5.382 6.6342-9.5846 9.1675-14.817 3.1761-6.5598 3.8367-13.501 4.3254-20.638 0.29727-4.3408 0.51854-8.7913-1.0014-12.965-0.85347-2.3434-2.664-3.5672-3.8142-5.6012-0.77884-1.3772-0.0866-3.7018-0.31479-5.2467-0.61033-4.1322-4.1847-6.4451-8.1225-6.6146-0.13783-6.678-4.4159-9.2604-10.583-9.2604 3.451-5.7118 7.2534-11.207 10.689-16.933 1.9221-3.2036 4.239-6.8574 4.8991-10.583 1.3467-7.6022-6.6081-11.967-12.678-7.2683-5.5276 4.2794-7.6405 11.904-12.7 16.529-0.12005-5.8167-3.2431-14.487-7.9377-18.116-3.2249-2.4927-9.9405-2.7836-11.617 1.712-1.5465 4.1482 0.4019 10.012 0.95892 14.288 1.1157 8.5644 1.9914 18.531-0.28377 26.988-0.61241 2.2763-2.623 4.1967-3.949 6.0854-3.5385 5.0404-7.9865 10.947-7.2885 17.462 0.44167 4.123 3.1082 7.7595 4.9158 11.377 2.8075 5.6187 5.254 12.15 5.1692 18.521-0.10495 7.8819-3.1258 16.026-6.0032 23.283-0.56933 1.436-3.3904 6.4869-1.6624 7.6253 2.5476 1.6784 3.847-4.5531 4.4005-6.0378 2.702-7.2475 6.2689-15.432 6.3623-23.283 0.0865-7.2747-1.824-13.798-4.8431-20.373-1.8203-3.9643-5.2037-8.1771-5.2022-12.7 2e-3 -6.1272 5.4268-12.324 8.8893-16.933 7.911-10.532 15.873-21.033 23.535-31.75 2.8098-3.93 7.266-13.204 12.811-13.221 2.4752-8e-3 4.3531 2.0031 4.0665 4.49-0.41665 3.6158-2.7887 6.9751-4.5561 10.054-6.7641 11.784-14.803 22.807-21.006 34.925-1.3763 2.6886-2.9137 5.3288-4.4363 7.9375-0.53638 0.919-1.652 2.2595-0.82416 3.3248 2.1911 2.8197 5.0974-4.3918 5.7867-5.7061 2.2574-4.304 4.7626-8.4803 7.1715-12.7 0.94735-1.6595 1.8923-4.2881 3.5041-5.3966 1.3705-0.94254 4.6445-0.60653 6.0605 0.10492 2.8399 1.4269 3.4536 4.5653 2.7775 7.4083-1.3838 5.8191-4.537 11.797-7.0688 17.198-0.67269 1.4349-3.7786 6.0647-2.3902 7.4765 2.1518 2.1882 3.9944-3.3302 4.5253-4.5661 2.0849-4.854 4.2034-9.6931 6.2767-14.552 0.80134-1.878 1.1888-4.6938 3.8173-3.9224 3.6555 1.0728 3.8068 5.3167 3.2269 8.4203-0.90699 4.8538-1.7444 9.7728-3.0031 14.552-0.47829 1.816-2.0492 5.011-1.5383 6.8637 0.46583 1.6892 2.3522 0.92452 2.8667-0.25418 1.2702-2.9098 1.6556-6.4391 2.386-9.5199 0.63756-2.6893 1.499-5.4268 1.6181-8.2021m-42.862-21.696c2.1274-8.2228 0.62464-18.153-0.45466-26.458-0.33699-2.5932-2.2744-8.5684-0.16638-10.675 1.6856-1.6846 4.9958-0.4185 6.438 0.91338 3.5107 3.2422 5.3141 8.6254 6.235 13.201 0.33551 1.667 1.0243 3.8582 0.65106 5.5562-0.39122 1.7801-2.4004 3.5922-3.4761 5.0271-2.8932 3.8592-5.5724 9.3339-9.2269 12.435"/><path d="m108.89 30.409c-2.5828-6.5526-14.466-12.329-17.771-2.9104-3.0842 8.7913 5.5871 17.868 10.739 23.812 1.476 1.703 4.3288 6.3974 6.7669 6.5041 1.6883 0.0739 3.1416-1.9371 4.121-3.0645 2.8303-3.2581 5.8531-6.3282 8.4532-9.7896 3.3418-4.4488 6.8785-10.025 5.8237-15.875-1.0835-6.0093-7.857-8.1561-12.842-5.1984-2.5812 1.5316-3.845 4.0426-5.2917 6.5213m-0.52917 23.812c-4.5902-6.5224-11.833-11.797-13.982-19.844-1.3076-4.8978 0.92426-10.293 6.8381-7.9032 3.5817 1.4475 5.5376 5.8836 6.0089 9.4907 0.16938 1.2965-0.12801 4.5943 1.9258 4.5943 2.1892 0 1.4814-3.8124 1.7131-5.1234 0.80719-4.5681 5.4662-12.762 11.205-8.6931 2.2899 1.6234 2.1274 4.969 1.5099 7.3702-1.4881 5.787-6.2726 11.059-10.215 15.346-1.3967 1.5188-2.9816 4.1461-5.0044 4.7625"/></g><path d="m181.87 120.97c0 2.5588 0.51513 4.5693 1.5454 6.0314 1.0606 1.4215 2.4998 2.1323 4.318 2.1323h18.09c6.5451 0 12.136-1.7465 16.772-5.2394 4.6664-3.493 8.2268-8.5293 10.681-15.109 2.4847-6.6204 3.7271-14.561 3.7271-23.821 0-9.2604-1.2423-17.16-3.7271-23.699-2.4544-6.5391-6.0148-11.514-10.681-14.927-4.6361-3.4118-10.227-5.1176-16.772-5.1176h-18.09c-1.8181 0-3.2574 0.73109-4.318 2.1933-1.0303 1.4215-1.5454 3.4118-1.5454 5.9705m11.727 5.0566h10.999c6.5451 0 11.59 2.64 15.135 7.9201 3.5453 5.2394 5.3178 12.794 5.3178 22.664 0 9.9913-1.7574 17.647-5.2724 22.968-3.515 5.2801-8.5752 7.92-15.181 7.92h-10.999" fill="none" stroke="#323231" stroke-width="2.865" aria-label="D"/></svg>
